<?xml version="1.0" encoding="UTF-8"?>
<svg xmlns="http://www.w3.org/2000/svg" xmlns:xlink="http://www.w3.org/1999/xlink" width="36px" height="36px" viewBox="0 0 36 36" version="1.1">
<g id="surface1">
<path style=" stroke:none;fill-rule:nonzero;fill:rgb(83.529412%,0%,0%);fill-opacity:1;" d="M 33.738281 33.210938 L 27.988281 28.34375 C 27.84375 28.21875 27.648438 28.175781 27.46875 28.210938 C 27.289062 28.253906 27.132812 28.378906 27.054688 28.554688 L 24.640625 33.863281 L 18.863281 19.15625 C 21.613281 18.910156 24.019531 17.5 25.609375 15.425781 Z M 33.738281 33.210938 "/>
<path style=" stroke:none;fill-rule:nonzero;fill:rgb(83.529412%,0%,0%);fill-opacity:1;" d="M 17.136719 19.15625 L 11.359375 33.863281 L 8.945312 28.554688 C 8.867188 28.378906 8.710938 28.253906 8.53125 28.210938 C 8.351562 28.175781 8.152344 28.21875 8.011719 28.34375 L 2.261719 33.210938 L 10.390625 15.425781 C 11.980469 17.5 14.386719 18.910156 17.136719 19.15625 Z M 17.136719 19.15625 "/>
<path style=" stroke:none;fill-rule:nonzero;fill:rgb(74.117647%,74.117647%,74.117647%);fill-opacity:1;" d="M 18 1.199219 C 13.367188 1.199219 9.601562 4.96875 9.601562 9.601562 C 9.601562 14.230469 13.367188 18 18 18 C 22.632812 18 26.398438 14.230469 26.398438 9.601562 C 26.398438 4.96875 22.632812 1.199219 18 1.199219 Z M 23.585938 8.164062 L 21.011719 10.679688 L 21.617188 14.21875 C 21.660156 14.464844 21.402344 14.652344 21.1875 14.539062 L 18 12.863281 L 14.8125 14.539062 C 14.597656 14.652344 14.339844 14.464844 14.382812 14.21875 L 14.988281 10.679688 L 12.414062 8.164062 C 12.234375 7.992188 12.335938 7.691406 12.582031 7.65625 L 16.140625 7.140625 L 17.730469 3.910156 C 17.84375 3.691406 18.15625 3.691406 18.269531 3.910156 L 19.859375 7.140625 L 23.417969 7.65625 C 23.664062 7.691406 23.765625 7.992188 23.585938 8.164062 Z M 23.585938 8.164062 "/>
<path style=" stroke:none;fill-rule:nonzero;fill:rgb(0%,0%,0%);fill-opacity:1;" d="M 35.945312 35.148438 L 26.394531 14.25 C 27.160156 12.871094 27.601562 11.285156 27.601562 9.601562 C 27.601562 4.308594 23.292969 0 18 0 C 12.707031 0 8.398438 4.308594 8.398438 9.601562 C 8.398438 11.285156 8.839844 12.871094 9.605469 14.25 L 0.0546875 35.148438 C -0.0585938 35.40625 0.0117188 35.703125 0.242188 35.878906 C 0.460938 36.046875 0.773438 36.039062 0.992188 35.855469 L 8.183594 29.769531 L 10.855469 35.644531 C 10.949219 35.859375 11.167969 36 11.398438 36 L 11.417969 36 C 11.65625 35.992188 11.867188 35.84375 11.957031 35.621094 L 18 20.238281 L 24.042969 35.621094 C 24.132812 35.84375 24.34375 35.992188 24.582031 36 L 24.601562 36 C 24.832031 36 25.050781 35.859375 25.144531 35.644531 L 27.816406 29.769531 L 35.007812 35.855469 C 35.226562 36.039062 35.539062 36.046875 35.757812 35.878906 C 35.988281 35.703125 36.058594 35.40625 35.945312 35.148438 Z M 11.359375 33.863281 L 8.945312 28.554688 C 8.867188 28.378906 8.710938 28.253906 8.53125 28.210938 C 8.351562 28.175781 8.152344 28.21875 8.011719 28.34375 L 2.261719 33.210938 L 10.390625 15.425781 C 11.980469 17.5 14.386719 18.910156 17.136719 19.15625 Z M 9.601562 9.601562 C 9.601562 4.96875 13.367188 1.199219 18 1.199219 C 22.632812 1.199219 26.398438 4.96875 26.398438 9.601562 C 26.398438 14.230469 22.632812 18 18 18 C 13.367188 18 9.601562 14.230469 9.601562 9.601562 Z M 27.988281 28.34375 C 27.847656 28.21875 27.648438 28.175781 27.46875 28.210938 C 27.289062 28.253906 27.132812 28.378906 27.054688 28.554688 L 24.640625 33.863281 L 18.863281 19.15625 C 21.613281 18.910156 24.019531 17.5 25.609375 15.425781 L 33.738281 33.210938 Z M 27.988281 28.34375 "/>
<path style=" stroke:none;fill-rule:nonzero;fill:rgb(0%,0%,0%);fill-opacity:1;" d="M 23.417969 7.65625 L 19.859375 7.140625 L 18.269531 3.910156 C 18.15625 3.691406 17.84375 3.691406 17.730469 3.910156 L 16.140625 7.140625 L 12.582031 7.65625 C 12.335938 7.691406 12.234375 7.992188 12.414062 8.164062 L 14.988281 10.679688 L 14.382812 14.21875 C 14.339844 14.464844 14.597656 14.652344 14.8125 14.539062 L 18 12.863281 L 21.1875 14.539062 C 21.402344 14.652344 21.660156 14.464844 21.617188 14.21875 L 21.011719 10.679688 L 23.585938 8.164062 C 23.765625 7.992188 23.664062 7.691406 23.417969 7.65625 Z M 19.722656 10.257812 L 20.128906 12.628906 L 18 11.507812 L 15.871094 12.628906 L 16.277344 10.257812 L 14.554688 8.578125 L 16.9375 8.238281 L 18 6.078125 L 19.0625 8.238281 L 21.445312 8.578125 Z M 19.722656 10.257812 "/>
<path style=" stroke:none;fill-rule:nonzero;fill:rgb(100%,75.686275%,2.745098%);fill-opacity:1;" d="M 19.722656 10.257812 L 20.128906 12.628906 L 18 11.507812 L 15.871094 12.628906 L 16.277344 10.257812 L 14.554688 8.578125 L 16.9375 8.238281 L 18 6.078125 L 19.0625 8.238281 L 21.445312 8.578125 Z M 19.722656 10.257812 "/>
<path style=" stroke:none;fill-rule:nonzero;fill:rgb(56.470588%,64.313725%,68.235294%);fill-opacity:1;" d="M 23.304688 3.09375 C 24.488281 4.542969 25.199219 6.390625 25.199219 8.398438 C 25.199219 13.03125 21.433594 16.800781 16.800781 16.800781 C 14.789062 16.800781 12.941406 16.089844 11.496094 14.90625 C 13.035156 16.792969 15.378906 18 18 18 C 22.632812 18 26.398438 14.230469 26.398438 9.601562 C 26.398438 6.980469 25.191406 4.636719 23.304688 3.09375 Z M 23.304688 3.09375 "/>
<path style=" stroke:none;fill-rule:nonzero;fill:rgb(71.764706%,10.980392%,10.980392%);fill-opacity:1;" d="M 31.21875 31.078125 L 33.738281 33.210938 L 25.609375 15.425781 C 25.296875 15.832031 24.949219 16.203125 24.578125 16.550781 Z M 31.21875 31.078125 "/>
<path style=" stroke:none;fill-rule:nonzero;fill:rgb(83.529412%,0%,0%);fill-opacity:1;" d="M 10.855469 15.96875 C 10.695312 15.792969 10.539062 15.613281 10.390625 15.425781 L 10.351562 15.519531 C 10.511719 15.671875 10.679688 15.824219 10.855469 15.96875 Z M 10.855469 15.96875 "/>
<path style=" stroke:none;fill-rule:nonzero;fill:rgb(71.764706%,10.980392%,10.980392%);fill-opacity:1;" d="M 15.765625 18.917969 L 10.570312 32.132812 L 11.359375 33.863281 L 17.136719 19.15625 C 16.667969 19.117188 16.210938 19.027344 15.765625 18.917969 Z M 15.765625 18.917969 "/>
</g>
</svg>
