<?xml version="1.0" encoding="UTF-8"?>
<svg xmlns="http://www.w3.org/2000/svg" xmlns:xlink="http://www.w3.org/1999/xlink" width="36px" height="36px" viewBox="0 0 36 36" version="1.1">
<g id="surface1">
<path style=" stroke:none;fill-rule:nonzero;fill:rgb(33.72549%,67.45098%,87.843137%);fill-opacity:1;" d="M 15.378906 28.460938 L 13.53125 32.171875 L 22.457031 32.171875 L 20.609375 28.460938 Z M 15.378906 28.460938 "/>
<path style=" stroke:none;fill-rule:nonzero;fill:rgb(100%,100%,100%);fill-opacity:1;" d="M 33.097656 3.828125 L 2.890625 3.828125 C 2.40625 3.828125 2.007812 4.226562 2.007812 4.710938 L 2.007812 25.574219 C 2.007812 26.0625 2.40625 26.457031 2.890625 26.457031 L 33.109375 26.457031 C 33.59375 26.457031 33.992188 26.0625 33.992188 25.574219 L 33.992188 4.710938 C 33.992188 4.226562 33.59375 3.828125 33.097656 3.828125 Z M 33.097656 3.828125 "/>
<path style=" stroke:none;fill-rule:nonzero;fill:rgb(9.803922%,30.980392%,50.980392%);fill-opacity:1;" d="M 33.097656 1.824219 L 2.890625 1.824219 C 1.296875 1.824219 0 3.125 0 4.71875 L 0 25.582031 C 0 27.175781 1.296875 28.472656 2.890625 28.472656 L 13.152344 28.472656 L 11.023438 32.726562 C 10.691406 33.390625 11.171875 34.175781 11.917969 34.175781 L 24.082031 34.175781 C 24.828125 34.175781 25.308594 33.398438 24.976562 32.726562 L 22.847656 28.472656 L 33.109375 28.472656 C 34.703125 28.472656 36 27.175781 36 25.582031 L 36 4.71875 C 35.988281 3.125 34.691406 1.824219 33.097656 1.824219 Z M 33.992188 25.582031 C 33.992188 26.066406 33.59375 26.464844 33.109375 26.464844 L 2.890625 26.464844 C 2.40625 26.464844 2.007812 26.066406 2.007812 25.582031 L 2.007812 4.71875 C 2.007812 4.230469 2.40625 3.835938 2.890625 3.835938 L 33.109375 3.835938 C 33.59375 3.835938 33.992188 4.230469 33.992188 4.71875 Z M 13.53125 32.171875 L 15.378906 28.46875 L 20.609375 28.46875 L 22.457031 32.171875 Z M 13.53125 32.171875 "/>
<path style=" stroke:none;fill-rule:nonzero;fill:rgb(100%,75.686275%,5.098039%);fill-opacity:1;" d="M 30.992188 5.824219 L 5.003906 5.824219 C 4.449219 5.824219 4 6.269531 4 6.828125 L 4 6.957031 L 6.316406 6.957031 C 6.871094 6.957031 7.320312 7.402344 7.320312 7.960938 C 7.320312 8.515625 6.875 8.960938 6.316406 8.960938 L 4 8.960938 L 4 10.699219 L 4.148438 10.699219 C 4.699219 10.699219 5.152344 11.140625 5.152344 11.699219 C 5.152344 12.25 4.707031 12.699219 4.160156 12.699219 L 4.007812 12.699219 L 4.007812 23.480469 C 4.007812 24.035156 4.449219 24.484375 5.007812 24.484375 L 31.003906 24.484375 C 31.554688 24.484375 32.003906 24.039062 32.003906 23.480469 L 32.003906 6.828125 C 32 6.277344 31.542969 5.824219 30.992188 5.824219 Z M 30.992188 5.824219 "/>
<path style=" stroke:none;fill-rule:nonzero;fill:rgb(100%,100%,100%);fill-opacity:1;" d="M 19.832031 15.125 C 19.832031 16.539062 18.683594 17.6875 17.269531 17.6875 C 15.855469 17.6875 14.710938 16.539062 14.710938 15.125 C 14.710938 13.710938 15.855469 12.566406 17.269531 12.566406 C 18.683594 12.566406 19.832031 13.710938 19.832031 15.125 Z M 19.832031 15.125 "/>
<path style=" stroke:none;fill-rule:nonzero;fill:rgb(9.803922%,30.980392%,50.980392%);fill-opacity:1;" d="M 21.136719 17.515625 C 21.566406 16.820312 21.816406 16.003906 21.816406 15.125 C 21.816406 12.617188 19.785156 10.585938 17.277344 10.585938 C 14.769531 10.585938 12.738281 12.617188 12.738281 15.125 C 12.738281 17.632812 14.769531 19.664062 17.277344 19.664062 C 18.183594 19.664062 19.023438 19.398438 19.738281 18.9375 L 23.5 22.699219 C 23.890625 23.089844 24.519531 23.089844 24.917969 22.699219 C 25.308594 22.316406 25.308594 21.6875 24.917969 21.289062 Z M 17.269531 17.679688 C 15.859375 17.679688 14.710938 16.542969 14.710938 15.121094 C 14.710938 13.707031 15.859375 12.558594 17.269531 12.558594 C 18.679688 12.558594 19.832031 13.707031 19.832031 15.121094 C 19.832031 16.535156 18.679688 17.679688 17.269531 17.679688 Z M 17.269531 17.679688 "/>
<path style=" stroke:none;fill-rule:nonzero;fill:rgb(9.803922%,30.980392%,50.980392%);fill-opacity:1;" d="M 6.84375 12.523438 L 9.375 12.523438 L 9.375 16.523438 C 9.375 17.601562 8.664062 17.769531 8.398438 17.769531 C 7.839844 17.769531 7.300781 17.492188 6.792969 16.9375 L 5.800781 18.308594 C 6.566406 19.097656 7.460938 19.492188 8.488281 19.492188 C 9.3125 19.492188 11.289062 19.191406 11.289062 16.453125 L 11.289062 10.894531 L 6.851562 10.894531 L 6.851562 12.523438 Z M 6.84375 12.523438 "/>
<path style=" stroke:none;fill-rule:nonzero;fill:rgb(9.803922%,30.980392%,50.980392%);fill-opacity:1;" d="M 30.75 17.058594 C 30.726562 15.269531 29.007812 14.996094 29.007812 14.996094 C 29.007812 14.996094 30.269531 14.699219 30.269531 13.144531 C 30.269531 10.679688 27.25 10.886719 27.25 10.886719 L 23.921875 10.886719 L 23.921875 19.433594 L 27.660156 19.433594 C 30.898438 19.527344 30.75 17.058594 30.75 17.058594 Z M 25.824219 12.5 L 26.742188 12.5 C 27.359375 12.53125 28.3125 12.421875 28.296875 13.4375 C 28.296875 13.933594 28.183594 14.34375 26.730469 14.34375 L 25.824219 14.34375 Z M 27.132812 17.816406 L 25.824219 17.816406 L 25.824219 15.847656 L 26.949219 15.847656 C 27.707031 15.882812 28.792969 15.808594 28.769531 16.820312 C 28.773438 17.210938 28.722656 17.847656 27.132812 17.816406 Z M 27.132812 17.816406 "/>
</g>
</svg>
